<?xml version="1.0" encoding="utf-8" standalone="no"?>
<!DOCTYPE svg PUBLIC "-//W3C//DTD SVG 1.1//EN"
  "http://www.w3.org/Graphics/SVG/1.1/DTD/svg11.dtd">
<!-- Created with matplotlib (http://matplotlib.org/) -->
<svg height="306pt" version="1.1" viewBox="0 0 319 306" width="319pt" xmlns="http://www.w3.org/2000/svg" xmlns:xlink="http://www.w3.org/1999/xlink">
 <defs>
  <style type="text/css">
*{stroke-linecap:butt;stroke-linejoin:round;}
  </style>
 </defs>
 <g id="figure_1">
  <g id="patch_1">
   <path d="M 0 306.378125 
L 319.803125 306.378125 
L 319.803125 0 
L 0 0 
z
" style="fill:#ffffff;"/>
  </g>
  <g id="axes_1">
   <g id="patch_2">
    <path clip-path="url(#pe4f2b0edf1)" d="M 296.421307 220.727273 
L 245.694034 220.727273 
L 245.694034 270.145455 
z
" style="fill:#e7f1fa;stroke:#000000;stroke-linejoin:miter;"/>
   </g>
   <g id="patch_3">
    <path clip-path="url(#pe4f2b0edf1)" d="M 296.421307 270.145455 
L 245.694034 270.145455 
L 296.421307 220.727273 
z
" style="fill:#08478d;stroke:#000000;stroke-linejoin:miter;"/>
   </g>
   <g id="patch_4">
    <path clip-path="url(#pe4f2b0edf1)" d="M 296.421307 270.145455 
L 245.694034 270.145455 
L 245.694034 220.727273 
L 296.421307 220.727273 
z
" style="fill:none;stroke:#000000;stroke-linejoin:miter;"/>
   </g>
   <g id="patch_5">
    <path clip-path="url(#pe4f2b0edf1)" d="M 245.694034 220.727273 
L 194.966761 220.727273 
L 194.966761 270.145455 
z
" style="fill:#9dcae1;stroke:#000000;stroke-linejoin:miter;"/>
   </g>
   <g id="patch_6">
    <path clip-path="url(#pe4f2b0edf1)" d="M 245.694034 270.145455 
L 194.966761 270.145455 
L 245.694034 220.727273 
z
" style="fill:#f5f9fe;stroke:#000000;stroke-linejoin:miter;"/>
   </g>
   <g id="patch_7">
    <path clip-path="url(#pe4f2b0edf1)" d="M 245.694034 270.145455 
L 194.966761 270.145455 
L 194.966761 220.727273 
L 245.694034 220.727273 
z
" style="fill:none;stroke:#000000;stroke-linejoin:miter;"/>
   </g>
   <g id="patch_8">
    <path clip-path="url(#pe4f2b0edf1)" d="M 194.966761 220.727273 
L 144.239489 220.727273 
L 144.239489 270.145455 
z
" style="fill:#fff2ec;stroke:#000000;stroke-linejoin:miter;"/>
   </g>
   <g id="patch_9">
    <path clip-path="url(#pe4f2b0edf1)" d="M 194.966761 270.145455 
L 144.239489 270.145455 
L 194.966761 220.727273 
z
" style="fill:#1967ad;stroke:#000000;stroke-linejoin:miter;"/>
   </g>
   <g id="patch_10">
    <path clip-path="url(#pe4f2b0edf1)" d="M 194.966761 270.145455 
L 144.239489 270.145455 
L 144.239489 220.727273 
L 194.966761 220.727273 
z
" style="fill:none;stroke:#000000;stroke-linejoin:miter;"/>
   </g>
   <g id="patch_11">
    <path clip-path="url(#pe4f2b0edf1)" d="M 144.239489 220.727273 
L 93.512216 220.727273 
L 93.512216 270.145455 
z
" style="fill:#e3eef8;stroke:#000000;stroke-linejoin:miter;"/>
   </g>
   <g id="patch_12">
    <path clip-path="url(#pe4f2b0edf1)" d="M 144.239489 270.145455 
L 93.512216 270.145455 
L 144.239489 220.727273 
z
" style="fill:#08306b;stroke:#000000;stroke-linejoin:miter;"/>
   </g>
   <g id="patch_13">
    <path clip-path="url(#pe4f2b0edf1)" d="M 144.239489 270.145455 
L 93.512216 270.145455 
L 93.512216 220.727273 
L 144.239489 220.727273 
z
" style="fill:none;stroke:#000000;stroke-linejoin:miter;"/>
   </g>
   <g id="patch_14">
    <path clip-path="url(#pe4f2b0edf1)" d="M 93.512216 220.727273 
L 42.784943 220.727273 
L 42.784943 270.145455 
z
" style="fill:#fc9272;stroke:#000000;stroke-linejoin:miter;"/>
   </g>
   <g id="patch_15">
    <path clip-path="url(#pe4f2b0edf1)" d="M 93.512216 270.145455 
L 42.784943 270.145455 
L 93.512216 220.727273 
z
" style="fill:#d6e6f4;stroke:#000000;stroke-linejoin:miter;"/>
   </g>
   <g id="patch_16">
    <path clip-path="url(#pe4f2b0edf1)" d="M 93.512216 270.145455 
L 42.784943 270.145455 
L 42.784943 220.727273 
L 93.512216 220.727273 
z
" style="fill:none;stroke:#000000;stroke-linejoin:miter;"/>
   </g>
   <g id="patch_17">
    <path clip-path="url(#pe4f2b0edf1)" d="M 245.694034 171.309091 
L 194.966761 171.309091 
L 194.966761 220.727273 
z
" style="fill:#084a91;stroke:#000000;stroke-linejoin:miter;"/>
   </g>
   <g id="patch_18">
    <path clip-path="url(#pe4f2b0edf1)" d="M 245.694034 220.727273 
L 194.966761 220.727273 
L 245.694034 171.309091 
z
" style="fill:#fcbda4;stroke:#000000;stroke-linejoin:miter;"/>
   </g>
   <g id="patch_19">
    <path clip-path="url(#pe4f2b0edf1)" d="M 245.694034 220.727273 
L 194.966761 220.727273 
L 194.966761 171.309091 
L 245.694034 171.309091 
z
" style="fill:none;stroke:#000000;stroke-linejoin:miter;"/>
   </g>
   <g id="patch_20">
    <path clip-path="url(#pe4f2b0edf1)" d="M 194.966761 171.309091 
L 144.239489 171.309091 
L 144.239489 220.727273 
z
" style="fill:#9dcae1;stroke:#000000;stroke-linejoin:miter;"/>
   </g>
   <g id="patch_21">
    <path clip-path="url(#pe4f2b0edf1)" d="M 194.966761 220.727273 
L 144.239489 220.727273 
L 194.966761 171.309091 
z
" style="fill:#4292c6;stroke:#000000;stroke-linejoin:miter;"/>
   </g>
   <g id="patch_22">
    <path clip-path="url(#pe4f2b0edf1)" d="M 194.966761 220.727273 
L 144.239489 220.727273 
L 144.239489 171.309091 
L 194.966761 171.309091 
z
" style="fill:none;stroke:#000000;stroke-linejoin:miter;"/>
   </g>
   <g id="patch_23">
    <path clip-path="url(#pe4f2b0edf1)" d="M 144.239489 171.309091 
L 93.512216 171.309091 
L 93.512216 220.727273 
z
" style="fill:#cddff1;stroke:#000000;stroke-linejoin:miter;"/>
   </g>
   <g id="patch_24">
    <path clip-path="url(#pe4f2b0edf1)" d="M 144.239489 220.727273 
L 93.512216 220.727273 
L 144.239489 171.309091 
z
" style="fill:#08468b;stroke:#000000;stroke-linejoin:miter;"/>
   </g>
   <g id="patch_25">
    <path clip-path="url(#pe4f2b0edf1)" d="M 144.239489 220.727273 
L 93.512216 220.727273 
L 93.512216 171.309091 
L 144.239489 171.309091 
z
" style="fill:none;stroke:#000000;stroke-linejoin:miter;"/>
   </g>
   <g id="patch_26">
    <path clip-path="url(#pe4f2b0edf1)" d="M 93.512216 171.309091 
L 42.784943 171.309091 
L 42.784943 220.727273 
z
" style="fill:#5aa2cf;stroke:#000000;stroke-linejoin:miter;"/>
   </g>
   <g id="patch_27">
    <path clip-path="url(#pe4f2b0edf1)" d="M 93.512216 220.727273 
L 42.784943 220.727273 
L 93.512216 171.309091 
z
" style="fill:#eff6fc;stroke:#000000;stroke-linejoin:miter;"/>
   </g>
   <g id="patch_28">
    <path clip-path="url(#pe4f2b0edf1)" d="M 93.512216 220.727273 
L 42.784943 220.727273 
L 42.784943 171.309091 
L 93.512216 171.309091 
z
" style="fill:none;stroke:#000000;stroke-linejoin:miter;"/>
   </g>
   <g id="patch_29">
    <path clip-path="url(#pe4f2b0edf1)" d="M 194.966761 121.890909 
L 144.239489 121.890909 
L 144.239489 171.309091 
z
" style="fill:#fc9070;stroke:#000000;stroke-linejoin:miter;"/>
   </g>
   <g id="patch_30">
    <path clip-path="url(#pe4f2b0edf1)" d="M 194.966761 171.309091 
L 144.239489 171.309091 
L 194.966761 121.890909 
z
" style="fill:#1561a9;stroke:#000000;stroke-linejoin:miter;"/>
   </g>
   <g id="patch_31">
    <path clip-path="url(#pe4f2b0edf1)" d="M 194.966761 171.309091 
L 144.239489 171.309091 
L 144.239489 121.890909 
L 194.966761 121.890909 
z
" style="fill:none;stroke:#000000;stroke-linejoin:miter;"/>
   </g>
   <g id="patch_32">
    <path clip-path="url(#pe4f2b0edf1)" d="M 144.239489 121.890909 
L 93.512216 121.890909 
L 93.512216 171.309091 
z
" style="fill:#fb6c4c;stroke:#000000;stroke-linejoin:miter;"/>
   </g>
   <g id="patch_33">
    <path clip-path="url(#pe4f2b0edf1)" d="M 144.239489 171.309091 
L 93.512216 171.309091 
L 144.239489 121.890909 
z
" style="fill:#08316d;stroke:#000000;stroke-linejoin:miter;"/>
   </g>
   <g id="patch_34">
    <path clip-path="url(#pe4f2b0edf1)" d="M 144.239489 171.309091 
L 93.512216 171.309091 
L 93.512216 121.890909 
L 144.239489 121.890909 
z
" style="fill:none;stroke:#000000;stroke-linejoin:miter;"/>
   </g>
   <g id="patch_35">
    <path clip-path="url(#pe4f2b0edf1)" d="M 93.512216 121.890909 
L 42.784943 121.890909 
L 42.784943 171.309091 
z
" style="fill:#fca486;stroke:#000000;stroke-linejoin:miter;"/>
   </g>
   <g id="patch_36">
    <path clip-path="url(#pe4f2b0edf1)" d="M 93.512216 171.309091 
L 42.784943 171.309091 
L 93.512216 121.890909 
z
" style="fill:#3080bd;stroke:#000000;stroke-linejoin:miter;"/>
   </g>
   <g id="patch_37">
    <path clip-path="url(#pe4f2b0edf1)" d="M 93.512216 171.309091 
L 42.784943 171.309091 
L 42.784943 121.890909 
L 93.512216 121.890909 
z
" style="fill:none;stroke:#000000;stroke-linejoin:miter;"/>
   </g>
   <g id="patch_38">
    <path clip-path="url(#pe4f2b0edf1)" d="M 144.239489 72.472727 
L 93.512216 72.472727 
L 93.512216 121.890909 
z
" style="fill:#4292c6;stroke:#000000;stroke-linejoin:miter;"/>
   </g>
   <g id="patch_39">
    <path clip-path="url(#pe4f2b0edf1)" d="M 144.239489 121.890909 
L 93.512216 121.890909 
L 144.239489 72.472727 
z
" style="fill:#08458a;stroke:#000000;stroke-linejoin:miter;"/>
   </g>
   <g id="patch_40">
    <path clip-path="url(#pe4f2b0edf1)" d="M 144.239489 121.890909 
L 93.512216 121.890909 
L 93.512216 72.472727 
L 144.239489 72.472727 
z
" style="fill:none;stroke:#000000;stroke-linejoin:miter;"/>
   </g>
   <g id="patch_41">
    <path clip-path="url(#pe4f2b0edf1)" d="M 93.512216 72.472727 
L 42.784943 72.472727 
L 42.784943 121.890909 
z
" style="fill:#1966ad;stroke:#000000;stroke-linejoin:miter;"/>
   </g>
   <g id="patch_42">
    <path clip-path="url(#pe4f2b0edf1)" d="M 93.512216 121.890909 
L 42.784943 121.890909 
L 93.512216 72.472727 
z
" style="fill:#f85d42;stroke:#000000;stroke-linejoin:miter;"/>
   </g>
   <g id="patch_43">
    <path clip-path="url(#pe4f2b0edf1)" d="M 93.512216 121.890909 
L 42.784943 121.890909 
L 42.784943 72.472727 
L 93.512216 72.472727 
z
" style="fill:none;stroke:#000000;stroke-linejoin:miter;"/>
   </g>
   <g id="patch_44">
    <path clip-path="url(#pe4f2b0edf1)" d="M 93.512216 23.054545 
L 42.784943 23.054545 
L 42.784943 72.472727 
z
" style="fill:#083370;stroke:#000000;stroke-linejoin:miter;"/>
   </g>
   <g id="patch_45">
    <path clip-path="url(#pe4f2b0edf1)" d="M 93.512216 72.472727 
L 42.784943 72.472727 
L 93.512216 23.054545 
z
" style="fill:#b5d4e9;stroke:#000000;stroke-linejoin:miter;"/>
   </g>
   <g id="patch_46">
    <path clip-path="url(#pe4f2b0edf1)" d="M 93.512216 72.472727 
L 42.784943 72.472727 
L 42.784943 23.054545 
L 93.512216 23.054545 
z
" style="fill:none;stroke:#000000;stroke-linejoin:miter;"/>
   </g>
   <g id="line2d_1">
    <defs>
     <path d="M 0 3 
C 0.795609 3 1.55874 2.683901 2.12132 2.12132 
C 2.683901 1.55874 3 0.795609 3 0 
C 3 -0.795609 2.683901 -1.55874 2.12132 -2.12132 
C 1.55874 -2.683901 0.795609 -3 0 -3 
C -0.795609 -3 -1.55874 -2.683901 -2.12132 -2.12132 
C -2.683901 -1.55874 -3 -0.795609 -3 0 
C -3 0.795609 -2.683901 1.55874 -2.12132 2.12132 
C -1.55874 2.683901 -0.795609 3 0 3 
z
" id="md38aebf561" style="stroke:#000000;"/>
    </defs>
    <g clip-path="url(#pe4f2b0edf1)">
     <use style="fill:#ffffff;stroke:#000000;" x="278.666761" xlink:href="#md38aebf561" y="255.32"/>
    </g>
   </g>
   <g id="line2d_2">
    <g clip-path="url(#pe4f2b0edf1)">
     <use style="fill:#ffffff;stroke:#000000;" x="212.721307" xlink:href="#md38aebf561" y="238.023636"/>
    </g>
   </g>
   <g id="line2d_3">
    <g clip-path="url(#pe4f2b0edf1)">
     <use style="fill:#ffffff;stroke:#000000;" x="177.212216" xlink:href="#md38aebf561" y="255.32"/>
    </g>
   </g>
   <g id="line2d_4">
    <g clip-path="url(#pe4f2b0edf1)">
     <use style="fill:#ffffff;stroke:#000000;" x="126.484943" xlink:href="#md38aebf561" y="255.32"/>
    </g>
   </g>
   <g id="line2d_5">
    <g clip-path="url(#pe4f2b0edf1)">
     <use style="fill:#ffffff;stroke:#000000;" x="60.539489" xlink:href="#md38aebf561" y="238.023636"/>
    </g>
   </g>
   <g id="line2d_6">
    <g clip-path="url(#pe4f2b0edf1)">
     <use style="fill:#ffffff;stroke:#000000;" x="212.721307" xlink:href="#md38aebf561" y="188.605455"/>
    </g>
   </g>
   <g id="line2d_7">
    <g clip-path="url(#pe4f2b0edf1)">
     <use style="fill:#ffffff;stroke:#000000;" x="161.994034" xlink:href="#md38aebf561" y="188.605455"/>
    </g>
   </g>
   <g id="line2d_8">
    <g clip-path="url(#pe4f2b0edf1)">
     <use style="fill:#ffffff;stroke:#000000;" x="177.212216" xlink:href="#md38aebf561" y="205.901818"/>
    </g>
   </g>
   <g id="line2d_9">
    <g clip-path="url(#pe4f2b0edf1)">
     <use style="fill:#ffffff;stroke:#000000;" x="126.484943" xlink:href="#md38aebf561" y="205.901818"/>
    </g>
   </g>
   <g id="line2d_10">
    <g clip-path="url(#pe4f2b0edf1)">
     <use style="fill:#ffffff;stroke:#000000;" x="60.539489" xlink:href="#md38aebf561" y="188.605455"/>
    </g>
   </g>
   <g id="line2d_11">
    <g clip-path="url(#pe4f2b0edf1)">
     <use style="fill:#ffffff;stroke:#000000;" x="161.994034" xlink:href="#md38aebf561" y="139.187273"/>
    </g>
   </g>
   <g id="line2d_12">
    <g clip-path="url(#pe4f2b0edf1)">
     <use style="fill:#ffffff;stroke:#000000;" x="177.212216" xlink:href="#md38aebf561" y="156.483636"/>
    </g>
   </g>
   <g id="line2d_13">
    <g clip-path="url(#pe4f2b0edf1)">
     <use style="fill:#ffffff;stroke:#000000;" x="111.266761" xlink:href="#md38aebf561" y="139.187273"/>
    </g>
   </g>
   <g id="line2d_14">
    <g clip-path="url(#pe4f2b0edf1)">
     <use style="fill:#ffffff;stroke:#000000;" x="126.484943" xlink:href="#md38aebf561" y="156.483636"/>
    </g>
   </g>
   <g id="line2d_15">
    <g clip-path="url(#pe4f2b0edf1)">
     <use style="fill:#ffffff;stroke:#000000;" x="60.539489" xlink:href="#md38aebf561" y="139.187273"/>
    </g>
   </g>
   <g id="line2d_16">
    <g clip-path="url(#pe4f2b0edf1)">
     <use style="fill:#ffffff;stroke:#000000;" x="75.75767" xlink:href="#md38aebf561" y="156.483636"/>
    </g>
   </g>
   <g id="line2d_17">
    <g clip-path="url(#pe4f2b0edf1)">
     <use style="fill:#ffffff;stroke:#000000;" x="111.266761" xlink:href="#md38aebf561" y="89.769091"/>
    </g>
   </g>
   <g id="line2d_18">
    <g clip-path="url(#pe4f2b0edf1)">
     <use style="fill:#ffffff;stroke:#000000;" x="126.484943" xlink:href="#md38aebf561" y="107.065455"/>
    </g>
   </g>
   <g id="line2d_19">
    <g clip-path="url(#pe4f2b0edf1)">
     <use style="fill:#ffffff;stroke:#000000;" x="60.539489" xlink:href="#md38aebf561" y="89.769091"/>
    </g>
   </g>
   <g id="line2d_20">
    <g clip-path="url(#pe4f2b0edf1)">
     <use style="fill:#ffffff;stroke:#000000;" x="75.75767" xlink:href="#md38aebf561" y="107.065455"/>
    </g>
   </g>
   <g id="line2d_21">
    <g clip-path="url(#pe4f2b0edf1)">
     <use style="fill:#ffffff;stroke:#000000;" x="60.539489" xlink:href="#md38aebf561" y="40.350909"/>
    </g>
   </g>
  </g>
 </g>
 <defs>
  <clipPath id="pe4f2b0edf1">
   <rect height="271.8" width="279" x="30.103125" y="10.7"/>
  </clipPath>
 </defs>
</svg>
